<svg width="51" height="51" viewBox="0 0 51 51" fill="none" xmlns="http://www.w3.org/2000/svg">
<circle cx="25.5" cy="25.5" r="24.5" fill="#DEE0FF" stroke="white" stroke-width="2"/>
<path d="M25.4999 21.9167C29.458 21.9167 32.6666 18.708 32.6666 14.75C32.6666 10.792 29.458 7.58333 25.4999 7.58333C21.5419 7.58333 18.3333 10.792 18.3333 14.75C18.3333 18.708 21.5419 21.9167 25.4999 21.9167Z" fill="white" stroke="#292A3A" stroke-width="2"/>
<path d="M39.8289 36.25C39.8334 35.9558 39.8334 35.657 39.8334 35.3542C39.8334 30.9013 33.4162 27.2917 25.5001 27.2917C17.584 27.2917 11.1667 30.9013 11.1667 35.3542C11.1667 39.807 11.1667 43.4167 25.5001 43.4167C29.4973 43.4167 32.3797 43.1359 34.4584 42.6344" fill="white"/>
<path d="M39.8289 36.25C39.8334 35.9558 39.8334 35.657 39.8334 35.3542C39.8334 30.9013 33.4162 27.2917 25.5001 27.2917C17.584 27.2917 11.1667 30.9013 11.1667 35.3542C11.1667 39.807 11.1667 43.4167 25.5001 43.4167C29.4973 43.4167 32.3797 43.1359 34.4584 42.6344" stroke="#292A3A" stroke-width="2" stroke-linecap="round"/>
</svg>
