<?xml version="1.0" encoding="iso-8859-1"?>
<!-- Uploaded to: SVG Repo, www.svgrepo.com, Generator: SVG Repo Mixer Tools -->
<!DOCTYPE svg PUBLIC "-//W3C//DTD SVG 1.1//EN" "http://www.w3.org/Graphics/SVG/1.1/DTD/svg11.dtd">
<svg fill="#000000" height="800px" width="800px" version="1.1" id="Capa_1" xmlns="http://www.w3.org/2000/svg" xmlns:xlink="http://www.w3.org/1999/xlink" 
	 viewBox="0 0 179.291 179.291" xml:space="preserve">
<path d="M89.646,81.991L65.937,69.545V49.646h15v10.833l8.708,4.571l8.708-4.571V49.646h15v19.899L89.646,81.991z M65.937,109.746
	v40.274h15v-31.208l8.708-4.571l8.708,4.571v31.208h15v-40.274L89.646,97.3L65.937,109.746z M57.021,179.291H35.646v-15h7.292
	v-61.164c0-5.25,2.888-10.028,7.537-12.47l1.927-1.012l-1.927-1.011c-4.649-2.442-7.538-7.22-7.538-12.47V15h-7.292V0h21.376h65.248
	h21.376v15h-7.292v61.164c0,5.25-2.888,10.028-7.537,12.47l-1.927,1.012l1.927,1.011c4.649,2.442,7.538,7.22,7.538,12.47v61.164
	h7.292v15H122.27H57.021z M57.937,164.291h63.417v-60.61L94.619,89.646l26.735-14.035V15H57.937v60.61l26.735,14.035l-26.735,14.035
	V164.291z"/>
</svg>