<?xml version="1.0" encoding="UTF-8"?>
<svg id="_Слой_1" data-name="Слой 1" xmlns="http://www.w3.org/2000/svg" viewBox="0 0 515.39 515.39">
  <defs>
    <style>
      .cls-1 {
        fill: #1d4696;
      }

      .cls-2 {
        fill: #fff;
      }
    </style>
  </defs>
  <path class="cls-1" d="M305.72,258.83h.01s0-.07,0-.1c0,.03,0,.07-.02,.1Zm0,0h.01s0-.07,0-.1c0,.03,0,.07-.02,.1Zm203.99,32.27c3.84-6.48,2.46-12.45,2.46-12.45,0,0-6.88-43.88-9.24-60.97-2.37-17.12-7.08-20.05-7.08-20.05l-.08-.04h-.01s-38.54-24.45-38.54-24.45h-13.67l-.03-.05-5.28-8.2s-15.46-34.76-56.51-62.4c-1.07-.71-2.15-1.43-3.25-2.14-1.05-.68-2.12-1.35-3.2-2.02-3.5-2.15-7.17-4.25-11.01-6.25-.46-.25-.93-.49-1.4-.73-1.53-.79-3.08-1.56-4.66-2.32-.75-.35-1.51-.71-2.27-1.06-.81-.37-1.62-.74-2.44-1.1-23.86-10.6-53.57-17.9-90.12-17.82-129.82,.29-179.05,92.55-180.71,95.75-.04,.06-.05,.09-.05,.09l-5.84,8.2-.04,.05h-12.11l-38.63,24.49s-4.71,2.93-7.07,20.05c-2.36,17.09-9.24,60.97-9.24,60.97,0,0-1.38,5.97,2.46,12.45,3.83,6.48,16.52,25.43,27.42,34.38l-5.29,28.59-.02,.12-3.82,13.35-.04,.15c.86,0,51.97,.23,51.74,53.74H439.9c-.13-31.27,17.25-44.34,31.91-49.81,.5-.19,1-.37,1.5-.54,.77-.27,1.53-.51,2.27-.73,.22-.07,.45-.14,.68-.21,.29-.08,.58-.16,.86-.23,.53-.15,1.05-.28,1.57-.41,.51-.12,1.02-.24,1.51-.35,.68-.15,1.33-.29,1.97-.4,.32-.07,.63-.12,.93-.17,.31-.06,.61-.11,.9-.15,.29-.05,.58-.1,.86-.14,1.67-.25,3.1-.39,4.22-.47,1.27-.1,2.12-.12,2.43-.13h.13l-4.05-13.5-5.3-28.71c10.9-8.95,23.59-27.9,27.42-34.38Zm-468.35,20.19l-9.73-12.54s7.23-18.57,.44-20.94c-6.78-2.36-8.96,10.7-8.96,10.7,0,0-1.04-1.22-2.48-3-1.44-1.76-.51-5.93-.51-5.93,0,0,7.38-45.42,9.15-58.11,1.77-12.68,4.12-14.17,4.12-14.17l5.91-5.6-5.91,49.85s.9,3.55,5.32,3.55,5.02-4.13,5.02-4.13l8.85-56.94,10.32-6.19-21.54,123.45ZM263.2,84.59c99.51,0,140.66,66.21,141.29,67.25-1.02-.7-66.37-45.71-141.59-45.71s-144.63,45.01-145.71,45.71c.71-1.04,46.49-67.25,146.01-67.25Zm184.17,235.15c-1.9,4.09-8.91,6.41-8.91,6.41l-117.73,14.82-60.99,29.3-.34,.18-.37-.18-60.99-29.3-117.73-14.82s-7.01-2.32-8.89-6.41c-1.89-4.08,11.85-67.93,11.85-67.93,0,0,18.29-91.74,176.13-86.78,157.81-4.96,176.1,86.78,176.1,86.78,0,0,13.74,63.85,11.87,67.93Zm32.75-8.45l-21.53-123.45,10.32,6.19,8.85,56.94s.59,4.13,5.01,4.13,5.32-3.55,5.32-3.55l-5.91-49.85,5.91,5.6s2.35,1.49,4.13,14.17c1.77,12.69,9.14,58.11,9.14,58.11,0,0,.94,4.17-.5,5.93-1.44,1.78-2.48,3-2.48,3,0,0-2.19-13.06-8.96-10.7-6.79,2.37,.43,20.94,.43,20.94l-9.73,12.54Zm-174.39-52.47s0-.06,0-.09c0,.03,0,.07-.02,.1h.01Zm-.01,0h.01s0-.07,0-.1c0,.03,0,.07-.02,.1Zm0,0h.01s0-.07,0-.1c0,.03,0,.07-.02,.1Z"/>
  <path class="cls-1" d="M27.97,397.14l-14.6,13.5s12.17,23.01,55.97,19.03l-5.75-16.03s-21.02-1.67-35.62-16.49Z"/>
  <path class="cls-1" d="M76.29,342.8l-46.17,24.91s51.99-.22,51.77,53.76h122.35v-43.14H108.43s2.21-10.4-8.63-23.01c-8.14-9.47-13.66-12.57-15.91-13.53-.64-.27-1.33-.4-2.03-.4h0c-1.95,0-3.87,.48-5.58,1.41Z"/>
  <path class="cls-1" d="M445.38,342.8l46.17,24.91s-51.99-.22-51.77,53.76h-122.35v-43.14h95.8s-2.21-10.4,8.63-23.01c8.14-9.47,13.66-12.57,15.91-13.53,.64-.27,1.33-.4,2.03-.4h0c1.95,0,3.87,.48,5.58,1.41Z"/>
  <path class="cls-1" d="M493.51,397.14l14.6,13.5s-12.17,23.01-55.97,19.03l5.75-16.03s21.02-1.67,35.62-16.49Z"/>
  <path class="cls-1" d="M82.36,164.83s48.67-95.58,180.83-95.87,174.93,95.87,174.93,95.87l-15.34-1.47s-54.28-87.02-159.59-87.02S98.59,163.06,98.59,163.06l-16.22,1.77Z"/>
  <path class="cls-1" d="M64.37,173.09l-38.65,24.49s-4.71,2.95-7.07,20.06c-2.36,17.1-9.24,60.99-9.24,60.99,0,0-1.38,5.97,2.46,12.46,3.83,6.48,16.52,25.44,27.43,34.4l-5.31,28.72,.29-.14,37.76-18.44,30.09-162.54h-37.76Zm-23.01,138.2l-9.73-12.54s7.23-18.57,.44-20.94c-6.78-2.36-8.96,10.7-8.96,10.7,0,0-1.04-1.22-2.48-3-1.44-1.76-.51-5.93-.51-5.93,0,0,7.38-45.42,9.15-58.11,1.77-12.68,4.12-14.17,4.12-14.17l5.91-5.6-5.91,49.85s.9,3.55,5.32,3.55,5.02-4.13,5.02-4.13l8.85-56.94,10.32-6.19-21.54,123.45Z"/>
  <path class="cls-1" d="M509.61,291.09c3.84-6.49,2.46-12.46,2.46-12.46,0,0-6.88-43.89-9.23-60.99-2.3-16.58-6.79-19.86-7.07-20.05h-.01s-38.57-24.45-38.57-24.45l-.08-.05h-37.75l30.08,162.54,38.06,18.58-5.32-28.72c10.92-8.96,23.6-27.92,27.43-34.4Zm-29.49,20.2l-21.53-123.45,10.32,6.19,8.85,56.94s.59,4.13,5.01,4.13,5.32-3.55,5.32-3.55l-5.91-49.85,5.91,5.6s2.35,1.49,4.13,14.17c1.77,12.69,9.14,58.11,9.14,58.11,0,0,.94,4.17-.5,5.93-1.44,1.78-2.48,3-2.48,3,0,0-2.19-13.06-8.96-10.7-6.79,2.37,.43,20.94,.43,20.94l-9.73,12.54Z"/>
  <path class="cls-2" d="M435.5,251.81s-18.29-91.74-176.1-86.78c-157.84-4.96-176.13,86.78-176.13,86.78,0,0-13.74,63.85-11.85,67.93,1.88,4.09,8.89,6.41,8.89,6.41l117.73,14.82,60.99,29.3,.37,.18,.34-.18,60.99-29.3,117.73-14.82s7.01-2.32,8.91-6.41c1.87-4.08-11.87-67.93-11.87-67.93Zm-126.87-3.63c-.36,.88-.69,1.77-.99,2.65,.29-.88,.62-1.77,.99-2.65Zm-2.89,10.55s0,.06,0,.09h-.01s.01-.06,.02-.09Z"/>
  <path class="cls-1" d="M385.57,282.65c-.91-.18-1.8-.36-2.69-.52-.89-.17-1.76-.33-2.63-.47-4.34-.74-8.43-1.25-12.28-1.57-.7-.06-1.4-.11-2.08-.16-.07,0-.14,0-.2-.01-38.49-2.49-52.19,14.45-52.19,14.45l-53.76,13.33-53.74-13.33s-13.19-16.3-50.02-14.57c-.82,.04-1.65,.09-2.5,.14-.68,.05-1.38,.1-2.08,.16-.36,.03-.73,.06-1.1,.1-.08,0-.16,0-.24,.02-.59,.06-1.18,.11-1.77,.18-.57,.06-1.15,.13-1.73,.2-.48,.05-.95,.11-1.44,.18-.62,.08-1.24,.16-1.87,.25-.4,.06-.81,.12-1.22,.18-.83,.13-1.67,.26-2.53,.41-.84,.14-1.7,.29-2.56,.45-.99,.18-1.99,.37-3.01,.58,0,0-14.57-57.14,37.31-57.14,.55,0,1.1,0,1.64,.02,.41,.01,.81,.02,1.21,.04,.38,0,.76,.03,1.13,.05,.51,.02,1.02,.06,1.51,.1,.44,.03,.86,.07,1.29,.11,.6,.06,1.19,.12,1.78,.2,.37,.04,.73,.09,1.09,.15,1.11,.16,2.18,.35,3.22,.57,.43,.09,.86,.18,1.28,.28,.46,.11,.91,.23,1.36,.35,.23,.06,.45,.12,.68,.19,.27,.07,.54,.15,.81,.23,.39,.13,.78,.25,1.16,.38,.74,.25,1.46,.51,2.16,.79,.11,.05,.23,.09,.34,.14,.32,.13,.63,.27,.94,.4,1.2,.53,2.34,1.11,3.41,1.72,.58,.34,1.14,.68,1.68,1.04,1.27,.82,2.44,1.7,3.53,2.64,.17,.14,.33,.28,.49,.42,.44,.41,.87,.81,1.29,1.23,.14,.14,.28,.28,.41,.42,.29,.3,.57,.6,.85,.91,.29,.32,.56,.64,.83,.97,.05,.05,.09,.11,.13,.16,.31,.37,.6,.75,.88,1.13,.28,.37,.55,.75,.82,1.13,.05,.08,.1,.15,.14,.22,.23,.34,.45,.68,.66,1.03,.36,.56,.7,1.14,1.01,1.72,.2,.35,.38,.7,.56,1.05,.22,.44,.44,.88,.64,1.33,.21,.45,.41,.89,.59,1.34,.2,.47,.39,.95,.56,1.42,.16,.43,.32,.86,.46,1.29,.15,.45,.3,.89,.43,1.34,.06,.19,.12,.38,.17,.57,.21,.72,.4,1.44,.57,2.16,.11,.45,.21,.89,.3,1.34,2.33,11.07,.55,20.89,.55,20.89l9.73,2.77,36.21,10.31,38.44-10.95,7.49-2.13s-1.49-8.25,.05-18.15h.01s0-.07,0-.1c.04-.28,.09-.57,.14-.86,.05-.28,.11-.57,.16-.86,.04-.24,.09-.48,.14-.71,.19-.93,.41-1.86,.66-2.8,.08-.3,.16-.59,.25-.89,.17-.59,.36-1.18,.55-1.78,.3-.88,.63-1.77,.99-2.65,.24-.59,.5-1.18,.77-1.76,.14-.29,.28-.58,.42-.87,.28-.56,.57-1.11,.88-1.66,.03-.05,.06-.1,.09-.15,.14-.25,.29-.51,.45-.77,.17-.28,.34-.56,.52-.84,.16-.24,.32-.48,.48-.72,.4-.59,.82-1.17,1.26-1.74,.2-.26,.41-.52,.62-.78,.3-.35,.59-.7,.9-1.04,.38-.42,.77-.83,1.17-1.24,1.62-1.62,3.46-3.12,5.55-4.46,.25-.17,.52-.33,.78-.49,.28-.17,.55-.33,.84-.49,.31-.18,.63-.35,.95-.52,.33-.18,.68-.36,1.02-.52,1.75-.86,3.63-1.61,5.68-2.25,.29-.09,.59-.18,.88-.26,.83-.25,1.69-.47,2.58-.67,.32-.08,.64-.15,.96-.21,.51-.11,1.04-.21,1.57-.3,.34-.07,.69-.12,1.04-.18,.25-.04,.51-.08,.77-.11,.86-.13,1.75-.23,2.66-.32,.51-.05,1.03-.1,1.56-.13,.61-.05,1.24-.09,1.87-.11,.52-.03,1.05-.05,1.58-.06,.58-.01,1.17-.02,1.77-.02,51.87,0,37.32,57.14,37.32,57.14Z"/>
</svg>